<svg version="1" xmlns="http://www.w3.org/2000/svg" width="494.667" height="494.667" viewBox="0 0 371.000000 371.000000"><path d="M166.6 4.6c-7.9 1.5-17.6 5.8-22.4 9.8-1.8 1.6-4.4 4.8-5.8 7.2l-2.6 4.4h-12.7c-14.8 0-15.5.3-16.4 8.7-1.4 12.8-11.2 22.6-24.7 24.8-9 1.4-9 1.4-9 19.5 0 15.3-.1 15.9-2.1 16.5-3.8 1.2-11 8.7-13.9 14.5-4.9 9.7-6.4 16.4-6.3 28.5 0 20.9 7.2 37.8 18.2 43l4.1 2v15.6c0 10.9.4 16 1.3 17.3.8 1 3.5 2 7.3 2.5 8 1.2 13.2 3.9 18.3 9.7 4 4.6 7.1 12 7.1 17.3.1 6.1 3 7.1 20.4 7.1h14.5l1.6 3c3.5 6.8 12.4 13.1 23.4 16.7 2.5.8 9.6 1.7 15.7 2 12.5.6 22.1-.9 31.1-5.1 5.8-2.8 13.7-9.6 15.9-13.8l1.5-2.8h15c14.6 0 15.1-.1 17.4-2.5 1.8-1.7 2.5-3.5 2.5-6.2 0-2.1 1.1-6.1 2.4-8.8 4.2-9.2 11.9-14.8 22.4-16.5 8.8-1.5 9.2-2.3 9.2-20.5v-15.3l2.9-1.2c10.8-4.4 19.1-22.7 19.1-42-.1-20.8-6.7-36.8-18.1-43.3l-3.9-2.2v-15c0-18-.4-18.9-8.2-19.9-7.5-1-15.2-5-19.1-9.9-4.1-5.2-5.6-8.7-6.8-15.6-.4-2.9-1.4-5.9-2-6.7-.9-1.1-5.1-1.4-19.9-1.4h-18.7l-1.1-2.4c-6.8-15-33.6-23.8-57.6-19zm25 10.9c13.3 2.5 21.2 7.8 23 15.1 1.5 6.3 1.9 6.4 22.1 6.4 15.7 0 18.3.2 18.3 1.5 0 3.4 5.1 13.9 9.1 18.6 4.5 5.4 10.7 9.5 18.4 12.1l5 1.7.5 15.4c.3 10.3.9 15.9 1.8 16.9.7.9 3 1.8 5.1 2.2 5.2.8 10.3 6.7 13.3 15.5 3.2 9.4 3.3 27.8 0 36.5-3.7 10-8.7 15.6-14 15.6-1.1 0-2.9 1.1-4 2.5-1.8 2.2-2 4.1-2 15.8 0 17.5 0 16.7-2 16.7-3.5 0-15.8 6.8-20 11.1-4.6 4.6-9.5 13.2-10.7 18.6l-.7 3.3h-14.7c-16.6 0-18 .5-19.9 6.8-4.5 14.9-36.4 21.1-57 11.1-6.5-3.2-11.2-8.4-11.2-12.5 0-4.2-2.4-4.9-18.8-5.4l-15.4-.5-1.7-5.5c-4-12.9-14-22.5-27.6-26.5l-4-1.2-.3-15.4c-.3-16.6-1-18.9-6-18.9-5.7 0-12-8-14.8-19.1-2.3-9.1-1.5-26.3 1.6-34.3 3-7.8 7.5-12.6 13.6-14.6l4.9-1.5.3-16.2.2-16.2 4.3-1.2c13.6-3.6 23.4-13 27.8-26.3l2.2-6.6h12.3c11.1 0 12.6-.2 14.4-2 1.1-1.1 2-3.1 2-4.4 0-6 10.3-12.9 22.5-15.1 9.5-1.8 13-1.8 22.1 0z"/><path d="M201.5 85.2c-2.7 1.5-3 2.1-6.1 10.3-3.1 8.3-5.3 13.8-13.2 34.5-23.6 61.3-23 59.1-17.7 62.6 2.6 1.7 7.6 1.2 9.3-.9.6-.7 4.2-9.5 8-19.7s8.6-22.6 10.5-27.5C204.2 114.1 212 93 212 91.1c0-2.7-4.2-7.1-6.7-7.1-1 0-2.7.6-3.8 1.2zM123.5 110.9c-13.2 13.2-24.3 24.8-24.8 25.6-.4.9-.5 2.6 0 3.9.4 1.4 11.4 13.3 24.5 26.5 20.3 20.8 24 24.1 26.6 24.1 4.4 0 7.5-3 7.4-7-.1-2.8-1.6-4.9-10.5-13.9-5.8-5.8-15-15.3-20.4-21l-10-10.4 19.9-20.1c11-11.1 20.4-21.2 20.9-22.5 1.5-3.8-1.8-8.5-6.2-8.9-3.4-.3-4.4.6-27.4 23.7zM217 89c-1.2 1.2-2 3.3-2 5.2 0 2.9 2.3 5.6 20.7 24l20.6 20.7-20.7 20.9c-18.2 18.4-20.7 21.4-20.8 24.2-.1 4.1 3 7 7.6 7 2.8 0 5.7-2.6 26.9-24.1 13.1-13.4 24-25.2 24.3-26.5.3-1.2-.1-3.5-1-5-.8-1.6-11.8-13.1-24.3-25.7C227.9 89.5 225.1 87 222.2 87c-1.9 0-4 .8-5.2 2zM241.3 277.1c-4.5 1.3-10 8.1-11.2 14.1-.6 2.7-1.1 9.4-1.1 14.9v10l-6.6-.3-6.5-.3-.2-11.1c-.2-13.9-.6-14.4-9.6-14.4-5.2 0-7.9.6-11.8 2.5-6.6 3.3-8.4 5.5-9 10.7-.7 5.6 1.8 8.9 6.6 9 5.2.2 9.1-5.3 5.7-8.1-1-.9-2-.9-4 0-6.2 2.9-5.9-4.6.3-8.8 3.9-2.7 8.6-3 9.5-.7.3.9.6 6 .6 11.4v9.9l-3.2.3c-4.6.4-4.4 3.2.1 3.6l3.4.3-.5 13.3c-.7 17.4-2.8 21.6-10.8 21.6-2 0-3.9-.9-5.5-2.6-2.5-2.7-4.5-2.5-4.5.5 0 3.4 2.9 4.6 10.4 4.5 8.1 0 13.7-2.3 17.9-7.3 3-3.6 5-11.9 4.7-19.4-.5-11.3-.9-10.7 6.5-10.7h6.5v12c0 10.7.2 12.2 2 14 2.5 2.5 7.7 2.6 12.8.3l3.7-1.6-3-.6-3-.6-.3-11.8-.3-11.7h3.4c3.8 0 4.8-.6 4-2.6-.3-.8-1.9-1.4-3.9-1.4H241v-14.5c0-15.6 1-20.4 4.9-22.4 1.7-.9 2.6-.6 5.4 1.9 4 3.4 4.3 3.5 5.1 1.5 1-2.6-.5-4.4-4.2-5.5-4.3-1.2-6.6-1.2-10.9.1zM309.5 290c-8.1 1.2-14.8 6.9-18 15.4-2.4 6.3-1.8 21.4 1.2 27.1 2.6 4.9 6.7 8.9 11.3 10.8 1.9.9 2.8 1.6 1.9 1.6-1.7.1-5.9 4.1-5.9 5.7 0 .6 1.6.8 3.5.6 2.7-.3 6.2.9 15.6 5.3 7.6 3.7 13.9 6 16.8 6.3 4.3.4 5 .2 7.4-2.8 1.5-1.7 2.7-4 2.7-5.1 0-1.8-.1-1.9-2.5-.3-3.3 2.2-6.6 1.4-20-4.6-6.9-3.1-10.1-5-8.5-5 11.3-.1 19.8-8.5 21.8-21.6 1.8-10.9-.7-20.4-7.2-27.2-4.7-5.2-12-7.4-20.1-6.2zm6.3 3.1c1.7.6 4 2.5 5.1 4.3 2.7 4.3 4.5 16.5 3.7 24.6-1.4 13.9-4.6 19.4-11.1 19.4-6.9 0-10.3-6.6-11-21.2-.7-15.6 2.7-25.2 10.1-28.2.1 0 1.5.5 3.2 1.1zM46 292.3c-5.2 2.7-7.9 6-8.6 10.8-.8 4.8 2.8 9.2 7.6 9.2s7.5-4.4 5-8.3c-.7-1.2-1.2-1.2-3.5 0-2.2 1.2-2.8 1.2-4.1-.1-1.1-1.2-1.2-2.2-.6-4 1.6-4 4.8-6.2 10.1-6.7 7-.6 7.5.8 4.5 12.8-1.4 5.2-3.1 11.8-3.9 14.7l-1.5 5.2-4.7.3c-6.3.4-7.1 2.8-.9 2.8 2.5 0 4.6.3 4.6.6s-1.2 3-2.6 5.9c-4.4 9.4-11.1 12.3-15.3 6.7-2-2.6-2.2-2.6-3.5-.9-2.1 2.7-1 4.5 3.4 5.8 8.6 2.6 15.6-1.8 20.1-12.6l2.3-5.6 6.9.3 6.9.3 1.9 6c2.1 6.9 4.7 9.5 9.4 9.5 1.8 0 4.9.7 6.8 1.5 9.8 4.1 18.4-1.1 22.8-13.8l1.3-3.8 7.1.3 7 .3 2 6.3c1.1 3.5 2.9 7 4 7.8 2.5 1.8 7.6 1.8 12.2-.1 4.4-1.9 4.3-1.9 4.3.3 0 5.4 6.7 9.4 15.7 9.4 11.5-.1 19.3-6.7 19.3-16.4 0-6.4-2.3-10.6-10.5-19.8-3.8-4.1-7.6-8.9-8.6-10.5-3.6-5.7-1.4-13.5 3.6-13.5 2.8 0 3.6 1.1 5 6.5 1.2 4.2 3.5 5.6 6 3.5 1.7-1.4 1.9-5.3.5-8.1-1.7-3-6.4-4.9-12.5-4.9-9.9 0-15.7 5.1-15.8 14-.1 5.6 1.9 9.1 10.9 19.2 3.1 3.4 6.5 8 7.5 10 3.4 6.7 2 13.7-3.4 15.9-4.5 1.9-7.8-.3-9.9-6.6-1.8-5.7-4.6-7-7.1-3.5-2.4 3.4-6.7 2.4-8.2-2-2.9-8.5-3-8 .9-8 2.5 0 3.6-.4 3.6-1.5s-1.1-1.5-4-1.5h-3.9l-1.7-5.8c-3.9-13.9-6.7-22.9-8-25.3-1.9-3.9-6.3-5.2-14.8-4.7-11.7.8-17.6 5.7-17.6 14.6 0 4.7 2.4 7.3 6.9 7.4 4.2.1 6.3-1.8 5.9-5.6-.3-3.2-1-3.4-5.5-2.1-1.6.5-2.5.3-2.9-.9-1.9-4.9 3.9-10.6 10.7-10.6 6.5 0 6.7 1.3 2.3 17.8l-3.9 14.7-4.7.3c-3.4.2-4.8.7-4.8 1.8 0 1 1.2 1.4 4 1.4 4.6 0 4.8.5 1.9 6.3-2.9 5.7-6.8 9.7-9.5 9.7-3.2 0-5.4-1-5.4-2.5 0-1.4-2.7-2.8-3.9-2-.6.3-4.1-8.8-4.1-10.8 0-.4 1.6-.7 3.5-.7 5.3 0 4.7-2.8-.6-3.2l-4.2-.3-3.9-13.5c-6.1-21.2-6.8-22-18.7-22-5.1 0-7.8.6-11.1 2.3zm17.9 21.4c3.9 13.5 4.1 12.3-2.3 12.3-3.8 0-5.6-.4-5.6-1.3 0-2.2 4.5-18.7 5.1-18.7.3 0 1.6 3.5 2.8 7.7zm56.6 1.4c1.3 4.6 2.5 9 2.5 9.6 0 .9-1.8 1.3-5.5 1.3-3 0-5.5-.4-5.5-1 0-.9 3.6-14.8 4.6-17.9.7-2.1 1.2-1 3.9 8z"/><path d="M262.6 291c-4.6 1.4-9.5 5.3-11.2 8.9-2.3 4.7-.5 10.8 3.4 11.8 6.7 1.8 11.4-2.6 8.2-7.7-.7-1.2-1.2-1.2-3.5 0-2.2 1.2-2.8 1.2-4.1-.2-1.4-1.4-1.4-1.8-.1-4.5 1.7-3.2 8.2-6.7 11.3-6.1 1.8.3 1.9 1.8 2.2 24.8.2 26.8.3 27 6.3 27 5.7 0 5.9-.8 5.9-27.5 0-28.5.3-27.5-9.3-27.4-3.4 0-7.5.5-9.1.9z"/></svg>